<svg width="57" height="56" viewBox="0 0 57 56" fill="none" xmlns="http://www.w3.org/2000/svg">
<g clip-path="url(#clip0_46_5841)" filter="url(#filter0_i_46_5841)">
<path d="M48.0283 25.3319C52.3244 19.3626 50.973 11.1707 45.0089 7.02964C39.0432 2.89394 30.724 4.3782 26.4226 10.3459L19.2437 20.3164L40.8476 35.2989L48.0265 25.3284L48.0283 25.3319Z" fill="#FF8080"/>
<path d="M41.0005 30.5001C42.3339 28.6667 45.4003 24.3999 47.0003 21.9999C48.5518 19.6727 49.4427 18.5669 50.4072 15.7666C50.8706 18.9996 50.1182 22.4287 48.0287 25.332L48.0269 25.3285L40.8477 35.2986L19.244 20.316L21.6589 16.9616L41.0005 30.5001Z" fill="#D67171"/>
<path d="M25.3364 48.5493C19.4456 53.0045 11.1052 51.965 6.69972 46.2316C2.29596 40.4929 3.50031 32.234 9.38572 27.7772L19.2213 20.3365L35.1684 41.1106L25.3328 48.5512L25.3364 48.5493Z" fill="#E6EEFF"/>
</g>
<defs>
<filter id="filter0_i_46_5841" x="-5.77726" y="0" width="61.7997" height="59.8665" filterUnits="userSpaceOnUse" color-interpolation-filters="sRGB">
<feFlood flood-opacity="0" result="BackgroundImageFix"/>
<feBlend mode="normal" in="SourceGraphic" in2="BackgroundImageFix" result="shape"/>
<feColorMatrix in="SourceAlpha" type="matrix" values="0 0 0 0 0 0 0 0 0 0 0 0 0 0 0 0 0 0 127 0" result="hardAlpha"/>
<feOffset dx="-5.79972" dy="3.86648"/>
<feGaussianBlur stdDeviation="7.24965"/>
<feComposite in2="hardAlpha" operator="arithmetic" k2="-1" k3="1"/>
<feColorMatrix type="matrix" values="0 0 0 0 1 0 0 0 0 0.501961 0 0 0 0 0.501961 0 0 0 0.35 0"/>
<feBlend mode="normal" in2="shape" result="effect1_innerShadow_46_5841"/>
</filter>
<clipPath id="clip0_46_5841">
<rect width="56" height="56" fill="white" transform="translate(0.0224609)"/>
</clipPath>
</defs>
</svg>
