<svg width="18" height="18" viewBox="0 0 18 18" fill="none" xmlns="http://www.w3.org/2000/svg">
<path d="M8.99533 0.324219C7.49928 0.323892 6.02864 0.710898 4.72654 1.44757C3.42444 2.18424 2.33524 3.24547 1.56497 4.52798C0.794691 5.81048 0.369578 7.27057 0.331006 8.76612C0.292434 10.2617 0.641717 11.7417 1.34486 13.0622L0.399172 15.8993C0.320838 16.1342 0.30947 16.3862 0.366342 16.6272C0.423214 16.8682 0.546079 17.0886 0.721165 17.2637C0.896251 17.4388 1.11664 17.5616 1.35763 17.6185C1.59862 17.6754 1.85068 17.664 2.08558 17.5857L4.92263 16.64C6.08476 17.2581 7.37243 17.6034 8.6879 17.6495C10.0034 17.6957 11.3121 17.4415 12.5147 16.9064C13.7173 16.3713 14.7821 15.5692 15.6285 14.5611C16.4748 13.5529 17.0803 12.3652 17.3991 11.0881C17.7179 9.81105 17.7416 8.47811 17.4683 7.19051C17.195 5.90291 16.632 4.69448 15.822 3.65696C15.0119 2.61944 13.9762 1.78009 12.7933 1.20263C11.6105 0.625162 10.3116 0.324759 8.99533 0.324219ZM8.99533 16.3217C7.70635 16.3226 6.43998 15.9832 5.32424 15.3377C5.24255 15.2903 5.15172 15.2609 5.05778 15.2512C4.96384 15.2416 4.86892 15.2521 4.77932 15.2819L1.66314 16.3217L2.70215 13.2055C2.7321 13.116 2.74268 13.0211 2.7332 12.9272C2.72372 12.8332 2.69439 12.7424 2.64715 12.6606C1.83892 11.2633 1.51442 9.63825 1.72399 8.03765C1.93356 6.43705 2.66548 4.95034 3.80621 3.80817C4.94695 2.66599 6.43272 1.93219 8.03306 1.7206C9.63339 1.50901 11.2588 1.83146 12.6572 2.63793C14.0556 3.44439 15.1487 4.68979 15.7671 6.18093C16.3854 7.67207 16.4944 9.32559 16.0771 10.885C15.6598 12.4444 14.7395 13.8225 13.4591 14.8055C12.1786 15.7885 10.6096 16.3215 8.99533 16.3217Z" fill="#DFFCF6"/>
</svg>
