<svg width="22" height="22" viewBox="0 0 22 22" fill="none" xmlns="http://www.w3.org/2000/svg">
<path d="M18.3321 4.33203H3.66539C3.31177 4.33203 2.97263 4.47251 2.72258 4.72256C2.47253 4.9726 2.33205 5.31174 2.33205 5.66536V18.9987C2.33055 19.2528 2.40239 19.502 2.53897 19.7163C2.67555 19.9307 2.87106 20.101 3.10205 20.207C3.27857 20.289 3.47078 20.3316 3.66539 20.332C3.97839 20.3313 4.28101 20.2197 4.51955 20.017L4.52705 20.0112L7.24872 17.6654H18.3321C18.6857 17.6654 19.0248 17.5249 19.2749 17.2748C19.5249 17.0248 19.6654 16.6857 19.6654 16.332V5.66536C19.6654 5.31174 19.5249 4.9726 19.2749 4.72256C19.0248 4.47251 18.6857 4.33203 18.3321 4.33203ZM18.3321 16.332H6.99872C6.83865 16.3321 6.68394 16.3898 6.56289 16.4945L3.66539 18.9987V5.66536H18.3321V16.332ZM7.66539 9.66536C7.66539 9.48855 7.73563 9.31898 7.86065 9.19396C7.98567 9.06894 8.15524 8.9987 8.33206 8.9987H13.6654C13.8422 8.9987 14.0118 9.06894 14.1368 9.19396C14.2618 9.31898 14.3321 9.48855 14.3321 9.66536C14.3321 9.84218 14.2618 10.0117 14.1368 10.1368C14.0118 10.2618 13.8422 10.332 13.6654 10.332H8.33206C8.15524 10.332 7.98567 10.2618 7.86065 10.1368C7.73563 10.0117 7.66539 9.84218 7.66539 9.66536ZM7.66539 12.332C7.66539 12.1552 7.73563 11.9857 7.86065 11.8606C7.98567 11.7356 8.15524 11.6654 8.33206 11.6654H13.6654C13.8422 11.6654 14.0118 11.7356 14.1368 11.8606C14.2618 11.9857 14.3321 12.1552 14.3321 12.332C14.3321 12.5088 14.2618 12.6784 14.1368 12.8034C14.0118 12.9285 13.8422 12.9987 13.6654 12.9987H8.33206C8.15524 12.9987 7.98567 12.9285 7.86065 12.8034C7.73563 12.6784 7.66539 12.5088 7.66539 12.332Z" fill="#DFFCF6"/>
</svg>
